<?xml version="1.0" standalone="no"?>
<!DOCTYPE svg PUBLIC "-//W3C//DTD SVG 20010904//EN"
 "http://www.w3.org/TR/2001/REC-SVG-20010904/DTD/svg10.dtd">
<svg version="1.0" xmlns="http://www.w3.org/2000/svg"
 width="76.000000pt" height="76.000000pt" viewBox="0 0 76.000000 76.000000"
 preserveAspectRatio="xMidYMid meet">
<metadata>
Created by potrace 1.14, written by Peter Selinger 2001-2017
</metadata>
<g transform="translate(0.000000,76.000000) scale(0.100000,-0.100000)"
fill="#000000" stroke="none">
<path d="M370 511 c0 -17 -6 -31 -15 -35 -27 -10 -38 -55 -19 -84 15 -23 15
-28 -2 -78 -13 -38 -23 -54 -36 -54 -10 0 -18 -4 -18 -10 0 -5 7 -10 15 -10
13 0 12 -8 -5 -52 -11 -28 -18 -54 -15 -56 10 -10 25 12 40 59 l17 50 56 -3
57 -3 19 -53 c10 -28 22 -52 27 -52 13 0 11 16 -6 57 -8 19 -15 39 -15 44 0 5
7 9 15 9 23 0 18 18 -7 22 -31 4 -62 96 -42 123 21 29 17 61 -11 83 -15 12
-25 30 -25 46 0 16 -6 26 -15 26 -10 0 -15 -10 -15 -29z m50 -66 c27 -32 -23
-82 -55 -55 -18 15 -20 56 -2 63 23 10 45 7 57 -8z m-10 -110 c27 -72 26 -75
-25 -75 -34 0 -46 4 -42 13 2 6 10 29 18 50 15 43 35 48 49 12z"/>
</g>
</svg>
